# xmcd CD database file
#
# Track frame offsets:
#	150
#	11500
#	24270
#	44220
#	66549
#	88824
#	113135
#	124252
#	137913
#	150679
#	165558
#	180145
#	191840
#	201912
#	211963
#	232136
#
# Disc length: 3329 seconds
#
# Revision: 0
# Processed by: cddbd v1.5.1PL2 Copyright (c) Steve Scherf et al.
# Submitted via: CDex 1.70beta2
#
DISCID=e80cff10
DTITLE=Very Best of Blues - Very Best of Blues
DYEAR=2000
DGENRE=Blues
TTITLE0=John Lee Hooker-Boom boom
TTITLE1=Muddy Water-Hoochie coochie man
TTITLE2=Gary Moore feat Albert Collns-Oh pretty woman
TTITLE3=Collin James-Just came back
TTITLE4=George Thorogood-Bad to my bones
TTITLE5=Johnny Winter-You keep sayin' that you're leavin'
TTITLE6=Memphis Slim-Kansas City
TTITLE7=Elmore James-Dust my broom
TTITLE8=Jimmy Reed-Shame
TTITLE9=Lightnin' Hopkins-Mojo Hand
TTITLE10=Taj Mahal-Mercedes Benz
TTITLE11=B.B. King-Take a swing with me
TTITLE12=John Lee Hooker-Dimples
TTITLE13=Memphis Slim-The comeback
TTITLE14=Koko Taylor-Blues Power
TTITLE15=Bo Diddley-Before you accuse me
EXTD=YEAR: 2000
EXTT0=
EXTT1=
EXTT2=
EXTT3=
EXTT4=
EXTT5=
EXTT6=
EXTT7=
EXTT8=
EXTT9=
EXTT10=
EXTT11=
EXTT12=
EXTT13=
EXTT14=
EXTT15=
PLAYORDER=
